# xmcd
#
# Track frame offsets:
#	150
#	12965
#	26180
#	43068
#	55933
#	71288
#	86512
#	101101
#	116143
#	130437
#	144940
#	158774
#	179001
#
# Disc length: 2685 seconds
#
# Revision: 1
# Processed by: cddbd v1.5.2PL0 Copyright (c) Steve Scherf et al.
# Submitted via: audiograbber 1.83.01
#
DISCID=b60a7b0d
DTITLE=LeAnn Rimes - Blue
DYEAR=1996
DGENRE=Country
TTITLE0=Blue
TTITLE1=Hurt Me
TTITLE2=One Way Ticket (Because I Can)
TTITLE3=My Baby
TTITLE4=Honestly
TTITLE5=The Light In Your Eyes
TTITLE6=Talk To Me
TTITLE7=I'll Get Even With You
TTITLE8=Cattle Call
TTITLE9=Good Lookin' Man
TTITLE10=Fade To Blue
TTITLE11=How Do I Live
TTITLE12=How Do I Live (Extended)
EXTD=
EXTT0=
EXTT1=
EXTT2=
EXTT3=
EXTT4=
EXTT5=
EXTT6=
EXTT7=
EXTT8=
EXTT9=
EXTT10=
EXTT11=
EXTT12=
PLAYORDER=
